<?xml version="1.0" standalone="no"?>
<!DOCTYPE svg PUBLIC "-//W3C//DTD SVG 20010904//EN"
 "http://www.w3.org/TR/2001/REC-SVG-20010904/DTD/svg10.dtd">
<svg version="1.0" xmlns="http://www.w3.org/2000/svg"
 width="150.000000pt" height="37.000000pt" viewBox="0 0 150.000000 37.000000"
 preserveAspectRatio="xMidYMid meet">

<g transform="translate(0.000000,37.000000) scale(0.100000,-0.100000)"
fill="#000000" stroke="none">
<path d="M125 290 c-9 -15 4 -30 26 -30 17 0 19 -7 19 -69 0 -82 6 -101 31
-101 17 0 19 8 19 85 0 83 1 85 24 85 23 0 41 22 29 34 -11 10 -141 7 -148 -4z"/>
<path d="M305 287 c-3 -7 -5 -54 -3 -103 3 -81 5 -89 23 -89 17 0 21 8 25 49
6 64 30 75 30 14 0 -51 12 -73 34 -65 12 5 16 21 16 65 0 67 -15 88 -54 78
-22 -5 -25 -3 -28 26 -3 35 -33 52 -43 25z"/>
<path d="M764 287 c-3 -8 -4 -54 -2 -103 l3 -89 43 -3 c28 -2 53 3 68 13 22
14 24 22 24 90 0 65 -3 76 -22 89 -28 20 -107 21 -114 3z m92 -50 c3 -13 4
-41 2 -63 -2 -32 -7 -40 -25 -42 -22 -3 -23 0 -23 62 0 59 2 66 20 66 12 0 22
-9 26 -23z"/>
<path d="M1255 287 c-3 -7 -5 -54 -3 -103 3 -81 5 -89 23 -89 17 0 21 8 25 50
4 36 9 50 20 50 11 0 16 -14 20 -50 4 -36 10 -51 22 -53 37 -7 33 118 -5 142
-12 8 -22 8 -36 -1 -18 -11 -20 -9 -23 25 -3 38 -32 58 -43 29z"/>
<path d="M482 224 c-17 -12 -22 -25 -22 -59 0 -34 5 -47 22 -59 38 -27 108
-14 108 19 0 18 -37 20 -42 3 -6 -16 -38 -2 -38 16 0 10 13 16 42 18 50 4 61
25 29 57 -25 25 -68 27 -99 5z m66 -31 c2 -8 -5 -13 -17 -13 -12 0 -21 6 -21
16 0 18 31 15 38 -3z"/>
<path d="M947 222 c-21 -23 -22 -81 -1 -110 16 -23 48 -30 59 -12 4 6 13 5 25
-2 27 -17 33 -6 37 60 5 69 -7 93 -36 75 -13 -8 -22 -9 -26 -3 -10 16 -41 11
-58 -8z m69 -48 c7 -27 -7 -50 -25 -40 -12 8 -15 49 -4 59 13 13 23 7 29 -19z"/>
<path d="M1118 229 c-29 -16 -21 -45 17 -68 36 -21 46 -41 21 -41 -8 0 -16 7
-20 15 -9 25 -38 18 -34 -7 6 -45 100 -50 114 -6 7 22 -4 35 -52 64 -11 7 -16
15 -12 19 3 3 15 1 27 -7 29 -18 49 2 26 26 -18 18 -61 21 -87 5z"/>
</g>
</svg>
